<?xml version="1.0" standalone="no"?>
<!DOCTYPE svg PUBLIC "-//W3C//DTD SVG 20010904//EN"
 "http://www.w3.org/TR/2001/REC-SVG-20010904/DTD/svg10.dtd">
<svg version="1.0" xmlns="http://www.w3.org/2000/svg"
 width="2100.000000pt" height="1500.000000pt" viewBox="0 0 2100.000000 1500.000000"
 preserveAspectRatio="xMidYMid meet">

<g transform="translate(0.000000,1500.000000) scale(0.100000,-0.100000)"
fill="#000000" stroke="none">
<path d="M10584 12662 c-28 -10 -68 -32 -90 -49 -21 -18 -908 -902 -1970
-1965 -2146 -2148 -1969 -1959 -1969 -2103 1 -135 -152 28 1998 -2122 1633
-1633 1960 -1956 2002 -1975 70 -32 180 -32 250 0 42 19 369 342 2002 1975
1633 1633 1956 1960 1975 2002 17 38 23 68 23 125 0 57 -6 87 -23 125 -19 42
-342 369 -1975 2002 -1647 1647 -1960 1956 -2001 1974 -68 30 -158 34 -222 11z
m626 -2069 c96 -180 175 -334 175 -343 0 -9 -79 -163 -175 -343 l-175 -326
-360 0 -360 0 -175 326 c-96 180 -175 334 -175 343 0 9 79 163 175 343 l175
326 360 0 360 0 175 -326z m-1460 -1710 c96 -180 175 -334 175 -343 0 -9 -79
-163 -175 -343 l-175 -326 -360 0 -360 0 -175 326 c-96 180 -175 334 -175 343
0 9 79 163 175 343 l175 326 360 0 360 0 175 -326z m2920 0 c96 -180 175 -334
175 -343 0 -9 -79 -163 -175 -343 l-175 -326 -360 0 -360 0 -175 326 c-96 180
-175 334 -175 343 0 9 79 163 175 343 l175 326 360 0 360 0 175 -326z m-1460
-1720 c96 -180 175 -334 175 -343 0 -9 -79 -163 -175 -343 l-175 -326 -360 0
-360 0 -175 326 c-96 180 -175 334 -175 343 0 9 79 163 175 343 l175 326 360
0 360 0 175 -326z"/>
</g>
</svg>
