<?xml version="1.0" standalone="no"?>
<!DOCTYPE svg PUBLIC "-//W3C//DTD SVG 20010904//EN"
 "http://www.w3.org/TR/2001/REC-SVG-20010904/DTD/svg10.dtd">
<svg version="1.0" xmlns="http://www.w3.org/2000/svg"
 width="3440.000000pt" height="3439.000000pt" viewBox="0 0 3440.000000 3439.000000"
 preserveAspectRatio="xMidYMid meet">

<g transform="translate(0.000000,3439.000000) scale(0.100000,-0.100000)"
fill="#000000" stroke="none">
<path d="M17030 34384 c-141 -18 -319 -85 -478 -180 -91 -54 -135 -95 -702
-653 -852 -840 -12684 -12672 -13550 -13551 -1694 -1719 -2132 -2198 -2259
-2469 -26 -56 -26 -57 -27 -311 -1 -194 2 -268 13 -310 61 -232 415 -631 1942
-2190 695 -708 10978 -10991 12352 -12350 1597 -1581 2177 -2140 2330 -2246
48 -33 178 -77 295 -101 123 -24 405 -24 528 0 117 24 247 68 295 101 136 95
746 679 1875 1795 1276 1262 7604 7581 10055 10041 3920 3935 4521 4551 4610
4727 121 241 121 775 0 1016 -89 176 -690 793 -4580 4696 -2420 2430 -8849
8850 -10104 10092 -963 951 -1527 1496 -1748 1685 -124 106 -192 140 -366 181
-86 20 -138 25 -276 28 -93 2 -186 1 -205 -1z m2017 -7989 c724 -1347 1093
-2062 1093 -2115 0 -55 -328 -692 -1044 -2028 l-410 -762 -1498 2 -1499 3
-405 755 c-591 1102 -1025 1936 -1048 2016 -7 24 203 451 492 999 178 338 897
1680 938 1753 l25 42 1501 -2 1500 -3 355 -660z m-6052 -7183 c687 -1280 1065
-2011 1065 -2058 0 -48 -360 -743 -1043 -2016 l-411 -768 -1501 0 -1500 0
-390 728 c-655 1221 -1065 2012 -1065 2053 0 23 283 589 508 1014 196 372 918
1719 938 1753 l14 22 1498 0 1497 0 390 -728z m12162 8 c638 -1188 1073 -2026
1073 -2066 0 -41 -463 -931 -1122 -2159 l-333 -620 -1501 -3 -1501 -2 -431
802 c-682 1273 -1022 1932 -1022 1984 0 48 359 743 1043 2017 l412 767 1499
-2 1499 -3 384 -715z m-6181 -6985 c826 -1537 1164 -2191 1164 -2250 0 -51
-369 -766 -1057 -2048 l-396 -737 -1499 2 -1499 3 -325 605 c-620 1154 -997
1873 -1090 2079 l-46 104 155 311 c86 171 236 462 333 646 177 336 890 1669
946 1768 l30 52 1500 -2 1500 -3 284 -530z"/>
</g>
</svg>
