<?xml version="1.0" standalone="no"?>
<!DOCTYPE svg PUBLIC "-//W3C//DTD SVG 20010904//EN"
 "http://www.w3.org/TR/2001/REC-SVG-20010904/DTD/svg10.dtd">
<svg version="1.0" xmlns="http://www.w3.org/2000/svg"
 width="768.000000pt" height="1023.000000pt" viewBox="0 0 768.000000 1023.000000"
 preserveAspectRatio="xMidYMid meet">

<g transform="translate(0.000000,1023.000000) scale(0.100000,-0.100000)"
fill="#000000" stroke="none">
<path d="M4580 10194 c-414 -62 -812 -299 -1053 -626 -27 -38 -52 -68 -56 -68
-3 0 -28 7 -56 15 -312 95 -700 80 -1018 -39 -235 -89 -471 -252 -638 -442
-219 -248 -355 -555 -398 -894 -10 -82 -7 -326 4 -402 7 -44 6 -48 -13 -48
-11 0 -64 -11 -118 -25 -463 -119 -857 -442 -1061 -871 -160 -337 -199 -737
-107 -1091 46 -177 124 -354 221 -499 25 -38 46 -73 46 -79 0 -5 -22 -41 -48
-80 -99 -144 -196 -374 -235 -554 -116 -535 42 -1086 424 -1475 182 -184 392
-316 636 -399 102 -35 270 -74 340 -79 40 -3 39 7 13 -133 -20 -109 -23 -383
-5 -495 101 -620 512 -1110 1093 -1301 142 -46 249 -67 399 -77 208 -13 441
16 621 78 l76 26 108 -113 c160 -170 305 -276 500 -369 388 -185 864 -202
1267 -45 446 174 801 547 952 1002 96 287 108 551 40 870 -141 671 -657 1725
-1426 2912 -70 109 -128 200 -128 202 0 2 25 46 56 97 278 458 612 1073 812
1493 349 735 543 1299 593 1723 17 138 6 383 -21 512 -27 127 -82 285 -140
400 -240 479 -711 810 -1249 879 -113 15 -315 12 -431 -5z m515 -223 c311 -69
572 -226 764 -457 345 -415 409 -913 205 -1574 -124 -401 -270 -750 -539
-1295 -179 -362 -366 -711 -559 -1045 l-26 -45 -2 40 c-1 22 -2 54 -3 71 -1
17 -5 93 -9 170 -52 1046 -185 1940 -372 2499 -99 298 -223 531 -368 691 -25
29 -46 58 -46 65 0 22 76 105 138 152 139 107 288 168 450 186 105 11 126 20
147 61 26 50 20 97 -19 136 -31 31 -40 34 -90 34 -73 0 -235 -32 -316 -63
-167 -63 -323 -166 -428 -283 -31 -35 -61 -64 -66 -64 -5 0 -30 15 -56 34 -25
18 -83 55 -128 81 l-82 47 33 46 c54 78 217 233 312 298 163 111 345 187 522
218 48 9 99 18 113 20 64 11 338 -3 425 -23z m-1840 -645 c55 -14 101 -26 102
-26 1 0 -12 -33 -28 -72 -44 -104 -87 -249 -107 -353 -26 -144 -23 -438 6
-584 111 -550 524 -1395 1154 -2361 52 -80 98 -151 102 -159 5 -7 -146 141
-335 331 -189 190 -396 392 -459 450 -412 375 -668 580 -980 787 -132 87 -385
224 -486 264 -39 15 -41 18 -69 109 -49 157 -43 356 14 521 44 126 144 275
234 350 117 96 137 121 137 167 0 34 -6 48 -34 76 -28 28 -41 34 -78 34 -36 0
-54 -8 -109 -50 -292 -219 -457 -601 -420 -968 6 -57 14 -115 17 -129 6 -24 5
-25 -19 -19 -14 3 -83 11 -154 17 -70 6 -131 14 -134 17 -13 15 -29 157 -29
264 1 212 41 396 130 585 94 200 252 392 428 521 103 76 298 173 417 207 158
46 235 55 425 50 147 -3 191 -8 275 -29z m384 -153 c58 -33 165 -109 180 -126
8 -10 5 -28 -10 -68 -49 -126 -79 -279 -79 -400 0 -100 40 -152 116 -152 38 0
51 5 77 32 31 31 32 34 38 144 7 111 34 247 50 247 13 0 134 -188 179 -278
234 -474 377 -1233 469 -2487 5 -66 7 -122 5 -123 -1 -2 -28 36 -60 85 -627
968 -1014 1747 -1125 2263 -30 145 -38 406 -15 540 27 156 92 350 117 350 7 0
33 -12 58 -27z m-1710 -1739 c98 -24 106 -29 155 -99 35 -50 92 -63 153 -33
18 9 32 6 75 -17 324 -167 745 -490 1243 -953 122 -114 675 -666 671 -670 -10
-10 -861 404 -921 448 -5 4 -50 29 -100 55 -49 27 -107 59 -127 72 -21 13 -40
23 -43 23 -12 0 -279 165 -460 285 -337 223 -575 429 -717 620 -64 86 -168
268 -168 295 0 18 117 5 239 -26z m-478 -31 c41 -122 140 -304 226 -416 332
-433 1156 -963 2366 -1522 81 -38 145 -70 144 -72 -2 -2 -69 13 -148 32 -79
20 -182 45 -229 56 -47 11 -112 26 -145 34 -66 16 -280 60 -475 99 -335 66
-746 123 -1035 144 -135 9 -549 9 -659 -1 -171 -15 -333 -54 -485 -116 -51
-21 -73 -25 -80 -17 -27 34 -94 185 -112 252 -26 102 -34 250 -19 334 21 116
24 170 9 197 -25 47 -98 67 -153 41 -39 -17 -65 -83 -82 -209 -32 -234 14
-473 130 -677 l35 -62 -57 -42 c-31 -23 -59 -44 -62 -47 -3 -3 -33 -30 -67
-59 l-62 -52 -40 58 c-89 131 -159 299 -198 477 -25 113 -25 426 0 542 113
525 493 924 1011 1059 50 13 109 22 130 21 38 -2 40 -4 57 -54z m839 -1907
c341 -37 931 -136 1175 -196 22 -5 139 -32 260 -60 121 -27 236 -54 255 -59
19 -5 48 -12 65 -16 46 -10 43 -12 -230 -85 -669 -180 -1302 -301 -1792 -341
-184 -15 -517 -7 -643 16 -278 50 -491 155 -724 357 -13 11 16 41 104 107 118
89 128 95 148 79 9 -7 19 -15 22 -18 3 -3 33 -27 68 -54 127 -97 351 -194 415
-181 42 9 85 51 93 89 11 62 -30 118 -101 137 -85 23 -275 124 -275 147 0 19
272 79 435 96 88 9 588 -4 725 -18z m2224 -488 c-4 -7 -35 -44 -68 -81 -58
-67 -66 -72 -285 -182 -989 -494 -1634 -901 -2130 -1344 -40 -36 -83 -67 -95
-67 -11 -1 -57 -9 -101 -19 -147 -34 -318 -24 -468 26 -239 80 -437 274 -529
518 -33 89 -52 111 -105 118 -50 7 -97 -16 -118 -57 -19 -38 -19 -55 4 -121
117 -340 405 -606 756 -699 91 -24 152 -31 258 -32 48 0 87 -4 87 -9 0 -5 -17
-35 -37 -67 -21 -32 -56 -95 -78 -140 l-39 -82 -51 0 c-190 0 -470 90 -660
212 -355 228 -580 597 -625 1028 -32 297 56 637 227 887 l36 52 53 -48 c207
-189 471 -326 739 -381 291 -61 740 -50 1265 29 483 74 1198 241 1775 415 203
61 199 61 189 44z m144 -320 c-8 -13 -58 -93 -110 -178 -513 -836 -880 -1563
-1068 -2118 -131 -389 -176 -660 -151 -920 7 -68 11 -126 9 -128 -2 -2 -33
-11 -69 -21 -97 -26 -309 -24 -414 4 -82 22 -156 53 -235 98 -60 35 -113 29
-152 -15 -32 -35 -38 -101 -13 -137 38 -54 244 -148 395 -179 115 -24 326 -23
435 1 119 27 115 27 135 -32 10 -28 37 -91 59 -139 23 -48 38 -91 34 -95 -11
-10 -134 -45 -233 -66 -127 -26 -371 -23 -510 6 -552 116 -966 536 -1077 1089
-27 133 -24 394 6 532 28 129 33 138 74 144 269 39 398 77 590 175 541 276
1199 856 2096 1849 59 66 101 102 140 122 68 35 77 36 59 8z m425 -255 c679
-1098 1096 -1991 1203 -2583 26 -143 24 -403 -4 -537 -60 -280 -182 -505 -381
-703 -199 -197 -425 -317 -711 -377 -118 -24 -382 -24 -500 0 -295 62 -553
204 -749 413 -45 48 -80 88 -79 90 2 1 44 29 93 62 352 235 561 542 700 1027
97 342 183 860 220 1335 3 41 8 100 11 130 10 126 24 382 30 577 3 114 8 217
9 228 2 11 4 140 4 288 1 151 5 267 10 267 5 0 70 -98 144 -217z m-1192 -120
c-15 -30 -576 -580 -721 -708 -376 -334 -681 -556 -933 -679 -166 -81 -377
-150 -377 -124 0 5 19 37 42 71 255 379 820 808 1708 1297 113 62 223 124 245
137 48 28 48 28 36 6z m785 -205 c-3 -68 -8 -193 -11 -278 -23 -625 -93 -1257
-187 -1680 -110 -497 -246 -783 -483 -1016 -79 -78 -231 -194 -254 -194 -22 0
-129 259 -116 281 3 5 32 25 63 46 31 21 96 76 143 123 164 163 206 262 138
329 -24 24 -39 31 -69 31 -57 0 -82 -15 -120 -73 -43 -65 -187 -210 -200 -202
-26 16 -3 314 39 501 110 492 446 1224 963 2102 50 83 92 152 95 152 2 0 2
-55 -1 -122z"/>
<path d="M5854 1731 c-18 -11 -35 -25 -39 -31 -4 -6 -13 -64 -21 -128 -28
-242 -109 -410 -272 -564 -144 -136 -361 -228 -538 -228 -103 0 -154 -39 -154
-118 0 -37 6 -50 34 -78 32 -32 38 -34 99 -34 84 0 223 24 318 55 352 117 631
422 715 782 21 91 33 240 23 278 -20 71 -104 105 -165 66z"/>
<path fill="#4287f5" d="M6515 6129 c-309 -44 -604 -259 -749 -544 -290 -571 -4 -1268 599
-1458 586 -185 1200 201 1300 818 112 684 -469 1281 -1150 1184z"/>
</g>
</svg>
